<svg id="Layer_1" data-name="Layer 1" xmlns="http://www.w3.org/2000/svg" xmlns:xlink="http://www.w3.org/1999/xlink" viewBox="0 0 600 731.79" preserveAspectRatio="none"><defs><style>.cls-1{fill:none;}.cls-2{clip-path:url(#clip-path);}.cls-3{fill:#abc4a1;}.cls-4{fill:#aec9a0;}.cls-5{fill:#b2cd9f;}.cls-6{fill:#b5d29e;}.cls-7{fill:#b8d69c;}.cls-8{fill:#bbdb9b;}.cls-9{fill:#c8e2ab;}.cls-10{fill:#d6e9ba;}.cls-11{fill:#e3f1ca;}.cls-12{fill:#f1f8da;}.cls-13{fill:#feffea;}</style><clipPath id="clip-path" transform="translate(-0.31 -0.68)"><path class="cls-1" d="M0,558.93c93,0,207,41.07,300,41.07,107,0,193-41.07,300-41.07V0H0Z"/></clipPath></defs><title>LiquidCheeseCurvedV3</title><g class="cls-2"><rect class="cls-3" width="600" height="731.79"/><path class="cls-4" d="M182.56,646.3c-41-19.94-83.77-29.46-125.74-17.75C37.48,633.71,18.51,644,.31,659.11v73.36H316.74c-43.47-30.37-86.57-62.29-130.35-84.34C185.11,647.49,183.84,646.94,182.56,646.3Z" transform="translate(-0.31 -0.68)"/><path class="cls-5" d="M600.31.68H.31V659.19C18.5,644,37.48,633.73,56.82,628.54c42-11.62,84.76-2.2,125.74,17.75,1.28.67,2.55,1.28,3.83,1.83,43.8,22,86.87,54,130.35,84.35H600.31Z" transform="translate(-0.31 -0.68)"/><path class="cls-6" d="M179.71,532.14c1.2.73,2.4,1.56,3.57,2.29C256.85,582.45,329,656.54,405.84,696c65.31,33.48,131.06,26.71,194.47-9.33V.68H.31V526.56c19.38-15.85,39.74-25.38,60.42-28.27C101,492.26,141.2,507.63,179.71,532.14Z" transform="translate(-0.31 -0.68)"/><path class="cls-7" d="M.31.68V393.47c20.85-16.84,42.57-25,64.28-25.35,38.55-.73,76.21,20.77,112.25,49.86,1.12.92,2.21,1.83,3.33,2.71C249,477.4,317.32,554.33,391.09,596.41c70,40,141.12,31.47,209.22-11.52V.68Z" transform="translate(-0.31 -0.68)"/><path class="cls-8" d="M68.49,238c36.82,5.49,72,32.2,105.48,66,1.05,1,2.06,2.11,3.13,3.11,64.12,65.49,128.51,145,199.23,190,74.55,47.39,151.27,37.33,224-13.55V.68H.31V259.73C22.06,242,45.31,234.57,68.49,238Z" transform="translate(-0.31 -0.68)"/><path class="cls-9" d="M600.28.68H.31V125.35c23.37-19.12,47.89-25.16,72.07-17.56,35.1,11.06,67.69,43.63,98.74,82,1,1.18,1.91,2.38,2.88,3.56,59.4,74.17,119.88,156.29,187.6,204.15,78.93,55.81,161.54,44.82,238.71-15.18V.68Z" transform="translate(-0.31 -0.68)"/><path class="cls-10" d="M170.56,79.62C225.25,162.59,281.81,247,346.5,298c78.23,61.66,161.74,55.61,239.21-4.85,4.8-3.75,9.53-7.68,14.29-11.8V.68H108c21,19.48,40.75,46.28,59.89,75C168.8,77,169.66,78.34,170.56,79.62Z" transform="translate(-0.31 -0.68)"/><path class="cls-11" d="M600.28.68H187c44.29,78.48,91.32,150.47,145.06,197.76,71.92,63.3,150,68.33,223.12,19.31a284.77,284.77,0,0,0,45.11-38.15V.68Z" transform="translate(-0.31 -0.68)"/><path class="cls-12" d="M524.38,142.29c17.85-9.84,35.25-23.25,52-40.06a327.43,327.43,0,0,0,24-27V.68H241.59c23.58,38.15,48.64,71.53,75.79,98.25C383,163.6,455.62,180.06,524.38,142.29Z" transform="translate(-0.31 -0.68)"/><path class="cls-13" d="M493.39,66.9C521.63,55.38,549.22,33,574.69.68H303.57C362.71,65.62,429.42,93.07,493.39,66.9Z" transform="translate(-0.31 -0.68)"/></g></svg>