<svg id="Layer_1" data-name="Layer 1" xmlns="http://www.w3.org/2000/svg" xmlns:xlink="http://www.w3.org/1999/xlink" viewBox="0 0 1920 1080"><defs><style>.cls-1{fill:none;}.cls-2{clip-path:url(#clip-path);}.cls-3{fill:#abc4a1;}.cls-4{fill:#aec9a0;}.cls-5{fill:#b2cd9f;}.cls-6{fill:#b5d29e;}.cls-7{fill:#b8d69c;}.cls-8{fill:#bbdb9b;}.cls-9{fill:#c8e2ab;}.cls-10{fill:#d6e9ba;}.cls-11{fill:#e3f1ca;}.cls-12{fill:#f1f8da;}.cls-13{fill:#feffea;}</style><clipPath id="clip-path"><path class="cls-1" d="M-.5,938.5c297.67,0,662.33,69,960,69,342.33,0,617.67-69,960-69V-.5H-.5Z"/></clipPath></defs><title>LiquidCheeseCurved</title><g class="cls-2"><rect class="cls-1" width="1920" height="1080"/><path class="cls-4" d="M583.2,952.83C452,923.4,315.12,909.36,180.84,926.64A765.42,765.42,0,0,0,0,971.73V1080H1012.56c-139.08-44.82-277-91.93-417.12-124.47C591.36,954.58,587.28,953.77,583.2,952.83Z"/><path class="cls-5" d="M1920,0H0V971.85a766.23,766.23,0,0,1,180.84-45.23c134.28-17.15,271.2-3.24,402.36,26.19,4.08,1,8.16,1.89,12.24,2.7,140.16,32.41,278,79.66,417.12,124.49H1920Z"/><path class="cls-6" d="M574.08,784.35c3.84,1.08,7.68,2.3,11.4,3.38,235.44,70.87,466.44,180.22,712.2,238.4,209,49.41,419.4,39.42,622.32-13.77V0H0V776.12A669.36,669.36,0,0,1,193.32,734.4C322.08,725.49,450.84,748.17,574.08,784.35Z"/><path class="cls-7" d="M0,0V579.69c66.72-24.84,136.21-36.85,205.69-37.4,123.37-1.08,243.86,30.65,359.19,73.58,3.6,1.35,7.08,2.7,10.68,4,220.33,83.7,438.86,197.23,674.92,259.33,224,59,451.59,46.45,669.52-17V0Z"/><path class="cls-8" d="M218.16,350.19c117.84,8.1,230.28,47.52,337.56,97.33,3.36,1.49,6.6,3.11,10,4.59,205.2,96.66,411.24,214,637.56,280.4,238.56,69.93,484.08,55.08,716.76-20V0H0V382.32A520.3,520.3,0,0,1,218.16,350.19Z"/><path class="cls-9" d="M1919.88,0H0V184c74.76-28.22,153.23-37.13,230.63-25.92,112.31,16.33,216.58,64.39,315.94,121,3.12,1.75,6.12,3.51,9.24,5.26C745.87,393.8,939.42,515,1156.13,585.63,1408.71,668,1673.06,651.78,1920,563.22V0Z"/><path class="cls-10" d="M545.76,116.51c175,122.44,356,247,563,322.24,250.32,91,517.56,82.08,765.48-7.15,15.36-5.54,30.48-11.34,45.72-17.42V0H345.6C412.8,28.75,476,68.31,537.24,110.7,540.12,112.59,542.88,114.62,545.76,116.51Z"/><path class="cls-11" d="M1919.88,0H597.48c141.72,115.83,292.2,222.07,464.16,291.87,230.16,93.42,480,100.84,714,28.49A1087.53,1087.53,0,0,0,1920,264.06V0Z"/><path class="cls-12" d="M1677,209a952.41,952.41,0,0,0,166.32-59.13c26-12,51.6-25.38,76.68-39.83V0H772.08c75.48,56.3,155.64,105.57,242.52,145C1224.48,240.44,1457,264.74,1677,209Z"/><path class="cls-13" d="M1578.36,97.74C1668.72,80.73,1757,47.66,1838.52,0H970.92C1160.16,95.85,1373.64,136.35,1578.36,97.74Z"/></g></svg>