<svg id="Layer_1" data-name="Layer 1" xmlns="http://www.w3.org/2000/svg" xmlns:xlink="http://www.w3.org/1999/xlink" viewBox="0 0 600.07 859.46" preserveAspectRatio="none"><defs><style>.cls-1{fill:none;}.cls-2{clip-path:url(#clip-path);}.cls-3{fill:#abc4a1;}.cls-4{fill:#aec9a0;}.cls-5{fill:#b2cd9f;}.cls-6{fill:#b5d29e;}.cls-7{fill:#b8d69c;}.cls-8{fill:#bbdb9b;}.cls-9{fill:#c8e2ab;}.cls-10{fill:#d6e9ba;}.cls-11{fill:#e3f1ca;}.cls-12{fill:#f1f8da;}.cls-13{fill:#feffea;}</style><clipPath id="clip-path" transform="translate(0 -0.12)"><path class="cls-1" d="M-.31,655.76c93,0,207,48.24,300,48.24,107,0,193-48.24,300-48.24V-.68H-.31Z"/></clipPath></defs><title>LiquidCheeseCurvedV4</title><g class="cls-2"><rect class="cls-3" width="600" height="859.46"/><path class="cls-4" d="M182.25,758.38c-41-23.42-83.77-34.6-125.74-20.85C37.17,743.59,18.2,755.68,0,773.42v86.16H316.43c-43.47-35.67-86.57-73.16-130.35-99.05C184.8,759.78,183.53,759.13,182.25,758.38Z" transform="translate(0 -0.12)"/><path class="cls-5" d="M600,.12H0v773.4c18.19-17.84,37.17-29.91,56.51-36,42-13.65,84.76-2.58,125.74,20.85,1.28.78,2.55,1.5,3.83,2.15,43.8,25.83,86.87,63.42,130.35,99.06H600Z" transform="translate(0 -0.12)"/><path class="cls-6" d="M179.4,624.3c1.2.86,2.4,1.83,3.57,2.69,73.57,56.4,145.72,143.41,222.56,189.76,65.31,39.32,131.06,31.37,194.47-11V.12H0V617.75c19.38-18.62,39.74-29.81,60.42-33.2C100.69,577.46,140.89,595.51,179.4,624.3Z" transform="translate(0 -0.12)"/><path class="cls-7" d="M0,.12V461.44c20.85-19.78,42.57-29.36,64.28-29.78,38.55-.85,76.21,24.4,112.25,58.56,1.12,1.08,2.21,2.15,3.33,3.19C248.69,560,317,650.36,390.78,699.78c70,47,141.12,37,209.22-13.53V.12Z" transform="translate(0 -0.12)"/><path class="cls-8" d="M68.18,278.84c36.82,6.45,72,37.82,105.48,77.52,1.05,1.17,2.06,2.48,3.13,3.65C240.91,436.93,305.3,530.31,376,583.16c74.55,55.66,151.27,43.84,224-15.91V.12H0V304.36C21.75,283.54,45,274.81,68.18,278.84Z" transform="translate(0 -0.12)"/><path class="cls-9" d="M600,.12H0V146.54C23.37,124.08,47.89,117,72.07,125.92c35.1,13,67.69,51.24,98.74,96.3,1,1.39,1.91,2.8,2.88,4.18,59.4,87.11,119.88,183.56,187.6,239.77,78.93,65.55,161.54,52.64,238.71-17.83V.12Z" transform="translate(0 -0.12)"/><path class="cls-10" d="M170.25,92.83c54.69,97.45,111.25,196.58,175.94,256.48,78.23,72.42,161.74,65.31,239.21-5.7,4.8-4.4,9.53-9,14.29-13.85V.12h-492c21,22.88,40.75,54.35,59.89,88.08C168.49,89.75,169.35,91.33,170.25,92.83Z" transform="translate(0 -0.12)"/><path class="cls-11" d="M600,.12H186.69C231,92.29,278,176.84,331.75,232.38c71.92,74.34,150,80.25,223.12,22.68A301.73,301.73,0,0,0,600,210.25V.12Z" transform="translate(0 -0.12)"/><path class="cls-12" d="M524.07,166.43c17.85-11.55,35.25-27.3,52-47a373.88,373.88,0,0,0,24-31.71V.12H241.28c23.58,44.8,48.64,84,75.79,115.39C382.69,191.46,455.31,210.79,524.07,166.43Z" transform="translate(0 -0.12)"/><path class="cls-13" d="M493.08,77.89c28.24-13.53,55.83-39.81,81.3-77.77H303.26C362.4,76.39,429.11,108.63,493.08,77.89Z" transform="translate(0 -0.12)"/></g></svg>